<svg width="40" height="40" viewBox="0 0 40 40" fill="none" xmlns="http://www.w3.org/2000/svg">
<path d="M5 11.668L20 18.3346M35 11.668L20 18.3346M20 36.668V18.3346" stroke="black" stroke-linejoin="round"/>
<path d="M5 29.6101V12.0566C5 11.8195 5.13964 11.6046 5.35632 11.5083L19.7563 5.1083C19.9115 5.03935 20.0885 5.03935 20.2437 5.1083L34.6437 11.5083C34.8604 11.6046 35 11.8195 35 12.0566V29.6101C35 29.8472 34.8604 30.0621 34.6437 30.1584L20.2437 36.5584C20.0885 36.6273 19.9115 36.6273 19.7563 36.5584L5.35632 30.1584C5.13964 30.0621 5 29.8472 5 29.6101Z" stroke="black" stroke-linecap="round" stroke-linejoin="round"/>
<path d="M12.5 8.33203L27.1437 14.8403C27.3604 14.9366 27.5 15.1515 27.5 15.3886V21.6654" stroke="black" stroke-linecap="round" stroke-linejoin="round"/>
</svg>
