<svg width="40" height="40" viewBox="0 0 40 40" fill="none" xmlns="http://www.w3.org/2000/svg">
<path d="M33 35.0006H7C5.89543 35.0006 5 34.1052 5 33.0007V15.334C5 14.2294 5.89543 13.334 7 13.334H33C34.1046 13.334 35 14.2294 35 15.334V33.0006C35 34.1052 34.1046 35.0006 33 35.0006Z" stroke="black"/>
<path d="M11.6666 13.3327V7.26602C11.6666 6.93464 11.9353 6.66602 12.2666 6.66602H27.7333C28.0647 6.66602 28.3333 6.93464 28.3333 7.26601V13.3327" stroke="black"/>
<path d="M16.6666 6.66602V13.3327" stroke="black"/>
<path d="M20 6.66602V13.3327" stroke="black"/>
<path d="M27.5 25.0007C27.0398 25.0007 26.6667 24.6276 26.6667 24.1673C26.6667 23.7071 27.0398 23.334 27.5 23.334C27.9603 23.334 28.3334 23.7071 28.3334 24.1673C28.3334 24.6276 27.9603 25.0007 27.5 25.0007Z" fill="black" stroke="black" stroke-linecap="round" stroke-linejoin="round"/>
</svg>
