<svg width="140" height="38" viewBox="0 0 140 38" fill="none" xmlns="http://www.w3.org/2000/svg">
<path d="M51.7072 10.9792V23.0105L44.1859 10.9792H41.1774V27.5904H44.1859V15.6541L51.7072 27.5904H54.7157V10.9792H51.7072Z" fill="#B7AE9E"/>
<path d="M56.0714 14.0879H59.1724V10.9792H56.0714V14.0879ZM56.1176 27.5904V15.7253H59.1262V27.5904H56.1176Z" fill="#B7AE9E"/>
<path d="M72.0706 21.6578C72.0706 17.5525 69.2241 15.6066 66.2155 15.5829C63.1839 15.5592 60.3836 17.5525 60.3836 21.6578C60.3836 25.7632 63.1839 27.7565 66.2155 27.7328C68.9695 27.7091 70.8672 26.4039 71.7466 24.2444L69.4092 23.2478C68.6918 24.719 67.5578 25.2411 66.2155 25.2648C65.0584 25.2886 63.7393 24.719 63.4616 22.6071H72.0011C72.0474 22.2986 72.0706 21.9901 72.0706 21.6578ZM66.2155 18.0271C67.3727 18.0509 68.5529 18.6916 68.9232 20.4001H63.5079C63.9013 18.6678 65.0815 18.0034 66.2155 18.0271Z" fill="#B7AE9E"/>
<path d="M79.0234 17.9322V15.5829H77.1258V12.4031L74.1172 13.3523V15.5829H72.2196V17.9322H74.1172V24.0783C74.1172 26.4039 74.3024 27.5904 77.82 27.5904H78.63V24.8852H77.82C77.2646 24.8852 77.1258 24.7902 77.1258 24.0783V17.9322H79.0234Z" fill="#B7AE9E"/>
<path d="M83.4939 25.0038L89.8812 18.3119V15.7253H80.3003V18.3119H86.5024L80.1151 25.0038V27.5904H89.9507V25.0038H83.4939Z" fill="#B7AE9E"/>
<path d="M91.0293 24.2444L94.061 23.7698C94.2693 24.9563 95.6347 25.4072 96.4678 25.4072C97.3241 25.4072 98.8052 25.2174 98.8052 23.7936C98.8052 21.0171 91.3764 24.4817 91.3764 19.1662C91.3764 15.749 95.2412 15.5592 96.4678 15.5592C97.6249 15.5592 100.981 15.749 101.675 18.5017L98.8052 19.1187C98.5506 17.861 97.2546 17.6237 96.5604 17.6237C95.8661 17.6237 94.385 17.7898 94.385 19.1662C94.385 21.9189 101.814 18.4068 101.814 23.7936C101.814 27.4243 97.7406 27.7328 96.4678 27.7328C95.3107 27.7328 91.631 27.4243 91.0293 24.2444Z" fill="#B7AE9E"/>
<path d="M105.722 21.6578C105.722 24.5529 107.226 25.431 108.8 25.4072C110.212 25.3835 111.184 24.7902 111.762 23.1291L114.238 24.3631C113.336 26.7836 111.137 27.7091 108.8 27.7328C105.768 27.7565 102.714 25.7632 102.714 21.6578C102.714 17.5525 105.768 15.5592 108.8 15.5829C111.137 15.6066 113.336 16.5321 114.238 18.9526L111.762 20.1866C111.184 18.5255 110.212 17.9322 108.8 17.9085C107.226 17.8847 105.722 18.7628 105.722 21.6578Z" fill="#B7AE9E"/>
<path d="M122.315 15.5354C120.764 15.5354 119.353 16.366 118.45 18.1458V10.9792H115.442V27.5904H118.45V23.3902C118.45 17.9559 120.649 17.5051 121.459 17.5051C122.755 17.5051 122.94 18.8814 122.94 20.8985V27.5904H125.948V20.8985C125.948 18.3831 125.555 15.5354 122.315 15.5354Z" fill="#B7AE9E"/>
<path d="M138.65 21.6578C138.65 17.5525 135.804 15.6066 132.795 15.5829C129.764 15.5592 126.963 17.5525 126.963 21.6578C126.963 25.7632 129.764 27.7565 132.795 27.7328C135.549 27.7091 137.447 26.4039 138.326 24.2444L135.989 23.2478C135.272 24.719 134.138 25.2411 132.795 25.2648C131.638 25.2886 130.319 24.719 130.041 22.6071H138.581C138.627 22.2986 138.65 21.9901 138.65 21.6578ZM132.795 18.0271C133.952 18.0509 135.133 18.6916 135.503 20.4001H130.088C130.481 18.6678 131.661 18.0034 132.795 18.0271Z" fill="#B7AE9E"/>
<path d="M21.3462 4.22483L18.2587 3.37939L15.6568 13.3026L13.3078 4.34386L10.2203 5.18929L12.7582 14.8685L6.43675 8.40852L4.17653 10.7183L11.1104 17.8042L2.47537 15.4397L1.64807 18.5948L11.0829 21.1783C10.9749 20.7022 10.9178 20.2061 10.9178 19.6964C10.9178 16.0883 13.7799 13.1634 17.3106 13.1634C20.8413 13.1634 23.7035 16.0883 23.7035 19.6964C23.7035 20.2028 23.6471 20.6959 23.5404 21.1692L32.1149 23.517L32.9422 20.3619L23.4698 17.7681L32.1054 15.4035L31.2781 12.2484L21.8061 14.8419L28.1276 8.382L25.8673 6.07224L19.0297 13.0598L21.3462 4.22483Z" fill="#B7AE9E"/>
<path d="M23.5314 21.2059C23.2667 22.3496 22.7078 23.377 21.941 24.2001L28.1529 30.5482L30.4131 28.2384L23.5314 21.2059Z" fill="#B7AE9E"/>
<path d="M21.8783 24.2665C21.1022 25.0765 20.1215 25.681 19.0217 25.9925L21.2821 34.6132L24.3695 33.7677L21.8783 24.2665Z" fill="#B7AE9E"/>
<path d="M18.9064 26.024C18.3961 26.1581 17.8613 26.2293 17.3101 26.2293C16.7196 26.2293 16.1478 26.1475 15.605 25.9943L13.3425 34.6229L16.43 35.4683L18.9064 26.024Z" fill="#B7AE9E"/>
<path d="M15.4958 25.9625C14.4128 25.6355 13.4495 25.0234 12.6893 24.211L6.46212 30.5747L8.72234 32.8844L15.4958 25.9625Z" fill="#B7AE9E"/>
<path d="M12.638 24.1548C11.8908 23.3373 11.3465 22.3236 11.0875 21.1976L2.48493 23.5532L3.31223 26.7083L12.638 24.1548Z" fill="#B7AE9E"/>
</svg>
