<svg width="112" height="24" viewBox="0 0 112 24" fill="none" xmlns="http://www.w3.org/2000/svg">
<path d="M112 23.5518H108.409L107.134 20.5692H94.4966L93.253 23.5518H91.3721L99.844 3.5235L98.6004 0.571795H102.238L112 23.5518ZM95.1339 19.0547H106.497L100.761 5.70251L95.1339 19.0547Z" fill="black"/>
<path d="M88.4342 23.5518H85.8226L73.0138 5.70251V23.5518H71.4282V3.49259L69.3607 0.571795H73.5267L86.8331 19.1475V0.571795H88.4342V23.5518Z" fill="black"/>
<path d="M54.9507 24C53.8108 24 52.7123 23.8558 51.6552 23.5673C50.6086 23.2788 49.6241 22.877 48.7017 22.3619C47.7898 21.8364 46.9555 21.208 46.199 20.4765C45.4529 19.745 44.8104 18.9363 44.2715 18.0502C43.7326 17.1539 43.3129 16.1958 43.0124 15.1758C42.7222 14.1455 42.5771 13.0741 42.5771 11.9614C42.5771 10.8693 42.7222 9.81326 43.0124 8.7933C43.3129 7.77334 43.7326 6.82035 44.2715 5.93432C44.8104 5.04829 45.4529 4.23954 46.199 3.50805C46.9555 2.77656 47.7898 2.15325 48.7017 1.63812C49.6241 1.12299 50.6086 0.721185 51.6552 0.432711C52.7123 0.144237 53.8108 0 54.9507 0C56.0803 0 57.1685 0.144237 58.2151 0.432711C59.2618 0.710882 60.2411 1.11269 61.1531 1.63812C62.0651 2.15325 62.8941 2.77656 63.6403 3.50805C64.3968 4.23954 65.0393 5.04829 65.5678 5.93432C66.1067 6.82035 66.5212 7.77334 66.8114 8.7933C67.1119 9.81326 67.2622 10.8693 67.2622 11.9614C67.2622 13.0741 67.1119 14.1455 66.8114 15.1758C66.5212 16.1958 66.1067 17.1539 65.5678 18.0502C65.0393 18.9363 64.3968 19.745 63.6403 20.4765C62.8941 21.208 62.0651 21.8364 61.1531 22.3619C60.2411 22.877 59.2618 23.2788 58.2151 23.5673C57.1685 23.8558 56.0803 24 54.9507 24ZM54.9507 22.501C56.3601 22.501 57.6037 22.2279 58.6815 21.6819C59.7696 21.1359 60.6816 20.3889 61.4174 19.4411C62.1531 18.4932 62.7076 17.3806 63.0806 16.103C63.4641 14.8152 63.6558 13.4346 63.6558 11.9614C63.6558 10.4984 63.4693 9.12814 63.0962 7.85061C62.7231 6.57308 62.1687 5.46555 61.4329 4.52801C60.7075 3.59047 59.8007 2.85383 58.7126 2.31809C57.6244 1.77205 56.3705 1.49903 54.9507 1.49903C53.5103 1.49903 52.2459 1.77205 51.1578 2.31809C50.08 2.85383 49.1733 3.59047 48.4375 4.52801C47.7121 5.46555 47.1628 6.57308 46.7897 7.85061C46.427 9.12814 46.2457 10.4984 46.2457 11.9614C46.2457 13.4346 46.4322 14.8152 46.8053 16.103C47.1784 17.3806 47.7276 18.4932 48.453 19.4411C49.1888 20.3889 50.1008 21.1359 51.1889 21.6819C52.277 22.2279 53.531 22.501 54.9507 22.501Z" fill="black"/>
<path d="M30.8097 0.571795C32.1258 0.571795 33.2606 0.690275 34.214 0.927236C35.1778 1.15389 35.9913 1.45782 36.6546 1.83902C37.3282 2.22022 37.867 2.65808 38.2712 3.15261C38.6857 3.64713 39.0018 4.15711 39.2194 4.68255C39.4474 5.20798 39.5977 5.73342 39.6702 6.25885C39.7531 6.77398 39.7946 7.25306 39.7946 7.69607C39.7946 8.26271 39.7013 8.89633 39.5148 9.59691C39.3386 10.2975 39.0122 10.9775 38.5355 11.6368C38.0691 12.2962 37.4266 12.8938 36.6079 13.4295C35.7892 13.9549 34.7477 14.331 33.4834 14.5576L40.1677 23.5518H36.0017L29.4729 14.7894H26.9546V23.5518H23.5503V0.571795H30.8097ZM26.9546 2.08628V13.2595H28.8977C30.0066 13.2595 31.0066 13.1616 31.8979 12.9659C32.7995 12.7598 33.5663 12.4353 34.1985 11.9923C34.841 11.539 35.3333 10.9569 35.6752 10.246C36.0172 9.52479 36.1882 8.65421 36.1882 7.63425C36.1882 6.48036 35.981 5.54282 35.5664 4.82163C35.1519 4.09015 34.6026 3.5235 33.9187 3.1217C33.2451 2.71989 32.473 2.44687 31.6025 2.30264C30.732 2.1584 29.8408 2.08628 28.9288 2.08628H26.9546Z" fill="black"/>
<path d="M20.6279 23.5519H17.0371L15.7624 20.5693H3.1245L1.88092 23.5519H0L8.4719 3.52358L7.22831 0.571874H10.8658L20.6279 23.5519ZM3.76183 19.0548H15.1251L9.38904 5.70259L3.76183 19.0548Z" fill="black"/>
</svg>
