<svg width="140" height="38" viewBox="0 0 140 38" fill="none" xmlns="http://www.w3.org/2000/svg">
<path d="M45.6071 27.7895V24.8508H47.8801V12.995H45.6071V10.0563H54.5012C55.5554 10.0563 56.4695 10.2421 57.2436 10.6137C58.0342 10.9683 58.6436 11.4834 59.0718 12.159C59.5165 12.8176 59.7389 13.6114 59.7389 14.5403V14.7936C59.7389 15.6043 59.5906 16.2714 59.2942 16.7949C58.9977 17.3016 58.6436 17.6985 58.2318 17.9856C57.8365 18.2558 57.4577 18.45 57.0954 18.5682V19.0242C57.4577 19.1256 57.853 19.3198 58.2812 19.6069C58.7095 19.8771 59.0718 20.274 59.3683 20.7975C59.6812 21.3211 59.8377 22.0051 59.8377 22.8495V23.1028C59.8377 24.0824 59.6154 24.9268 59.1706 25.6362C58.7259 26.3286 58.1083 26.8606 57.3177 27.2321C56.5436 27.6037 55.6377 27.7895 54.6001 27.7895H45.6071ZM51.1412 24.7495H54.2048C54.913 24.7495 55.4812 24.5722 55.9095 24.2175C56.3542 23.8628 56.5765 23.3562 56.5765 22.6975V22.4442C56.5765 21.7855 56.3624 21.2789 55.9342 20.9242C55.5059 20.5695 54.9295 20.3922 54.2048 20.3922H51.1412V24.7495ZM51.1412 17.3522H54.1554C54.8306 17.3522 55.3824 17.1749 55.8106 16.8202C56.2554 16.4656 56.4777 15.9758 56.4777 15.3509V15.0976C56.4777 14.4558 56.2636 13.9661 55.8354 13.6283C55.4071 13.2736 54.8471 13.0963 54.1554 13.0963H51.1412V17.3522Z" fill="#B7AE9E"/>
<path d="M67.2016 28.1441C65.9828 28.1441 64.8875 27.8908 63.9157 27.3841C62.944 26.8775 62.1781 26.1428 61.6181 25.1802C61.0581 24.2175 60.7781 23.0606 60.7781 21.7095V21.3042C60.7781 19.9531 61.0581 18.7962 61.6181 17.8336C62.1781 16.8709 62.944 16.1363 63.9157 15.6296C64.8875 15.1229 65.9828 14.8696 67.2016 14.8696C68.4204 14.8696 69.5157 15.1229 70.4875 15.6296C71.4593 16.1363 72.2251 16.8709 72.7851 17.8336C73.3451 18.7962 73.6251 19.9531 73.6251 21.3042V21.7095C73.6251 23.0606 73.3451 24.2175 72.7851 25.1802C72.2251 26.1428 71.4593 26.8775 70.4875 27.3841C69.5157 27.8908 68.4204 28.1441 67.2016 28.1441ZM67.2016 25.3068C68.1569 25.3068 68.9475 24.9944 69.5734 24.3695C70.1993 23.7277 70.5122 22.8157 70.5122 21.6335V21.3802C70.5122 20.198 70.1993 19.2944 69.5734 18.6696C68.964 18.0278 68.1734 17.7069 67.2016 17.7069C66.2463 17.7069 65.4557 18.0278 64.8298 18.6696C64.204 19.2944 63.891 20.198 63.891 21.3802V21.6335C63.891 22.8157 64.204 23.7277 64.8298 24.3695C65.4557 24.9944 66.2463 25.3068 67.2016 25.3068Z" fill="#B7AE9E"/>
<path d="M75.2633 27.7895V10.0563H78.3762V27.7895H75.2633Z" fill="#B7AE9E"/>
<path d="M85.2846 27.7895C84.4775 27.7895 83.8187 27.5361 83.3081 27.0295C82.814 26.5059 82.5669 25.8135 82.5669 24.9522V17.8589H79.5034V15.2243H82.5669V11.323H85.6799V15.2243H89.0399V17.8589H85.6799V24.3948C85.6799 24.9015 85.9105 25.1548 86.3716 25.1548H88.7434V27.7895H85.2846Z" fill="#B7AE9E"/>
<path d="M95.7118 28.1441C94.1142 28.1441 92.8048 27.7895 91.7836 27.0801C90.7624 26.3708 90.1447 25.3575 89.9306 24.0402L92.7965 23.2802C92.9118 23.8713 93.1012 24.3357 93.3648 24.6735C93.6448 25.0113 93.9824 25.2562 94.3777 25.4082C94.7895 25.5433 95.2342 25.6108 95.7118 25.6108C96.4365 25.6108 96.9718 25.4842 97.3177 25.2308C97.6636 24.9606 97.8365 24.6313 97.8365 24.2428C97.8365 23.8544 97.6718 23.5588 97.3424 23.3562C97.013 23.1366 96.4859 22.9593 95.7612 22.8242L95.0695 22.6975C94.213 22.5286 93.4306 22.3006 92.7224 22.0135C92.0142 21.7095 91.4459 21.2958 91.0177 20.7722C90.5895 20.2487 90.3753 19.5731 90.3753 18.7456C90.3753 17.4958 90.82 16.5416 91.7095 15.8829C92.5989 15.2074 93.7683 14.8696 95.2177 14.8696C96.5848 14.8696 97.7212 15.182 98.6271 15.8069C99.533 16.4318 100.126 17.2509 100.406 18.2642L97.5153 19.1762C97.3836 18.5345 97.1118 18.0785 96.7 17.8082C96.3048 17.538 95.8106 17.4029 95.2177 17.4029C94.6248 17.4029 94.1718 17.5127 93.8589 17.7322C93.5459 17.9349 93.3895 18.222 93.3895 18.5936C93.3895 18.9989 93.5542 19.3029 93.8836 19.5056C94.213 19.6913 94.6577 19.8349 95.2177 19.9362L95.9095 20.0629C96.8318 20.2318 97.6636 20.4598 98.4048 20.7469C99.1624 21.0171 99.7553 21.414 100.184 21.9375C100.628 22.4442 100.851 23.1366 100.851 24.0148C100.851 25.3322 100.381 26.3539 99.4424 27.0801C98.5201 27.7895 97.2765 28.1441 95.7118 28.1441Z" fill="#B7AE9E"/>
<path d="M102.343 27.7895V10.0563H105.456V16.7696H105.901C106.033 16.4994 106.239 16.2291 106.519 15.9589C106.799 15.6887 107.169 15.4692 107.63 15.3003C108.108 15.1145 108.709 15.0216 109.434 15.0216C110.389 15.0216 111.221 15.2496 111.929 15.7056C112.654 16.1447 113.214 16.7611 113.609 17.5549C114.004 18.3318 114.202 19.2438 114.202 20.2909V27.7895H111.089V20.5442C111.089 19.5984 110.859 18.8891 110.397 18.4162C109.953 17.9433 109.31 17.7069 108.47 17.7069C107.515 17.7069 106.774 18.0362 106.247 18.6949C105.72 19.3367 105.456 20.2402 105.456 21.4055V27.7895H102.343Z" fill="#B7AE9E"/>
<path d="M116.332 27.7895V15.2243H119.445V27.7895H116.332ZM117.888 13.7549C117.328 13.7549 116.851 13.5692 116.455 13.1976C116.077 12.8261 115.887 12.3363 115.887 11.7283C115.887 11.1203 116.077 10.6305 116.455 10.259C116.851 9.88744 117.328 9.70166 117.888 9.70166C118.465 9.70166 118.943 9.88744 119.321 10.259C119.7 10.6305 119.89 11.1203 119.89 11.7283C119.89 12.3363 119.7 12.8261 119.321 13.1976C118.943 13.5692 118.465 13.7549 117.888 13.7549Z" fill="#B7AE9E"/>
<path d="M123.685 27.7895V17.8589H120.572V15.2243H123.685V12.8936C123.685 12.0323 123.932 11.3483 124.426 10.8416C124.937 10.3181 125.596 10.0563 126.403 10.0563H129.614V12.691H127.49C127.029 12.691 126.798 12.9443 126.798 13.451V15.2243H130.01V17.8589H126.798V27.7895H123.685Z" fill="#B7AE9E"/>
<path d="M135.637 27.7895C134.83 27.7895 134.171 27.5361 133.661 27.0295C133.167 26.5059 132.92 25.8135 132.92 24.9522V17.8589H129.856V15.2243H132.92V11.323H136.033V15.2243H139.393V17.8589H136.033V24.3948C136.033 24.9015 136.263 25.1548 136.724 25.1548H139.096V27.7895H135.637Z" fill="#B7AE9E"/>
<path fill-rule="evenodd" clip-rule="evenodd" d="M18.1177 38.0001C28.1238 38.0001 36.2353 29.6827 36.2353 19.4225C36.2353 9.16245 28.1238 0.844971 18.1177 0.844971C8.11153 0.844971 0 9.16245 0 19.4225C0 29.6827 8.11153 38.0001 18.1177 38.0001ZM23.7697 9.4992C24.0448 8.49713 23.0965 7.90458 22.2304 8.5373L10.1396 17.3693C9.20033 18.0555 9.34808 19.4225 10.3616 19.4225H13.5454V19.3973H19.7505L14.6945 21.2265L12.4656 29.3459C12.1905 30.348 13.1387 30.9406 14.005 30.3078L26.0957 21.4758C27.035 20.7897 26.8871 19.4225 25.8737 19.4225H21.0456L23.7697 9.4992Z" fill="#B7AE9E"/>
</svg>
