<svg width="140" height="38" viewBox="0 0 140 38" fill="none" xmlns="http://www.w3.org/2000/svg">
<path d="M37 24.515L42.2539 10.2446H45.2092L50.4631 24.515H47.6719L46.5227 21.2124H40.9199L39.7501 24.515H37ZM41.6382 19.1738H45.8044L43.711 13.2414L41.6382 19.1738Z" fill="#B7AE9E"/>
<path d="M55.732 24.7597C54.6922 24.7597 53.7755 24.5354 52.9819 24.0869C52.1884 23.6384 51.559 23.0132 51.0938 22.2114C50.6423 21.4095 50.4166 20.4921 50.4166 19.4592C50.4166 18.4263 50.6423 17.5089 51.0938 16.7071C51.559 15.9052 52.1884 15.28 52.9819 14.8315C53.7755 14.383 54.6922 14.1588 55.732 14.1588C57.0318 14.1588 58.1264 14.4986 59.0157 15.1781C59.905 15.8441 60.4728 16.7682 60.7191 17.9506H57.9485C57.8117 17.4614 57.538 17.0808 57.1276 16.809C56.7308 16.5236 56.2588 16.3809 55.7115 16.3809C54.9864 16.3809 54.3707 16.6527 53.8644 17.1964C53.3582 17.74 53.1051 18.4943 53.1051 19.4592C53.1051 20.4242 53.3582 21.1785 53.8644 21.7221C54.3707 22.2657 54.9864 22.5376 55.7115 22.5376C56.2588 22.5376 56.7308 22.4016 57.1276 22.1298C57.538 21.858 57.8117 21.4707 57.9485 20.9678H60.7191C60.4728 22.1094 59.905 23.0268 59.0157 23.72C58.1264 24.4131 57.0318 24.7597 55.732 24.7597Z" fill="#B7AE9E"/>
<path d="M62.0246 24.515V14.4034H64.3437L64.5694 15.7693C64.8978 15.28 65.3288 14.8927 65.8624 14.6073C66.4096 14.3083 67.039 14.1588 67.7505 14.1588C69.3239 14.1588 70.439 14.7636 71.0957 15.9732C71.4651 15.416 71.9577 14.9742 72.5734 14.6481C73.2027 14.3219 73.8868 14.1588 74.6257 14.1588C75.9528 14.1588 76.9721 14.5529 77.6836 15.3412C78.3951 16.1295 78.7508 17.2847 78.7508 18.8069V24.515H76.1239V19.0515C76.1239 18.1817 75.9528 17.5157 75.6108 17.0536C75.2824 16.5916 74.7693 16.3605 74.0716 16.3605C73.3601 16.3605 72.7854 16.6187 72.3476 17.1352C71.9235 17.6516 71.7114 18.372 71.7114 19.2961V24.515H69.0845V19.0515C69.0845 18.1817 68.9134 17.5157 68.5714 17.0536C68.2293 16.5916 67.7026 16.3605 66.9911 16.3605C66.2933 16.3605 65.7255 16.6187 65.2877 17.1352C64.8636 17.6516 64.6515 18.372 64.6515 19.2961V24.515H62.0246Z" fill="#B7AE9E"/>
<path d="M85.1647 24.7597C84.1386 24.7597 83.2287 24.5422 82.4351 24.1073C81.6416 23.6724 81.0191 23.0608 80.5676 22.2725C80.1161 21.4843 79.8903 20.5737 79.8903 19.5408C79.8903 18.4943 80.1092 17.5633 80.547 16.7479C80.9985 15.9324 81.6142 15.3004 82.3941 14.8519C83.1877 14.3898 84.118 14.1588 85.1852 14.1588C86.184 14.1588 87.0665 14.3763 87.8327 14.8112C88.5989 15.2461 89.194 15.8441 89.6182 16.6052C90.056 17.3526 90.2749 18.1885 90.2749 19.1127C90.2749 19.2622 90.2681 19.4185 90.2544 19.5815C90.2544 19.7446 90.2476 19.9145 90.2339 20.0912H82.4967C82.5514 20.8795 82.8251 21.4979 83.3176 21.9464C83.8239 22.3948 84.4327 22.6191 85.1442 22.6191C85.6778 22.6191 86.1224 22.5036 86.4782 22.2725C86.8476 22.0279 87.1212 21.7153 87.2991 21.3348H89.9671C89.7755 21.9735 89.454 22.5579 89.0025 23.088C88.5647 23.6044 88.0174 24.0122 87.3607 24.3112C86.7176 24.6102 85.9856 24.7597 85.1647 24.7597ZM85.1852 16.279C84.5422 16.279 83.9744 16.4624 83.4818 16.8294C82.9893 17.1828 82.6746 17.7264 82.5378 18.4603H87.6069C87.5659 17.7943 87.3196 17.2643 86.8681 16.8702C86.4166 16.476 85.8556 16.279 85.1852 16.279Z" fill="#B7AE9E"/>
<path d="M101.89 24.7597C100.439 24.7597 99.1943 24.4539 98.1545 23.8423C97.1146 23.2171 96.3142 22.3541 95.7533 21.2532C95.1923 20.1388 94.9118 18.8544 94.9118 17.4002C94.9118 15.946 95.1923 14.6617 95.7533 13.5472C96.3142 12.4328 97.1146 11.5629 98.1545 10.9378C99.1943 10.3126 100.439 10 101.89 10C103.614 10 105.023 10.4281 106.117 11.2843C107.226 12.127 107.917 13.3162 108.19 14.8519H105.296C105.119 14.0773 104.735 13.4725 104.147 13.0376C103.573 12.5891 102.806 12.3648 101.849 12.3648C100.521 12.3648 99.4816 12.8133 98.7291 13.7103C97.9766 14.6073 97.6003 15.8373 97.6003 17.4002C97.6003 18.9632 97.9766 20.1931 98.7291 21.0901C99.4816 21.9735 100.521 22.4152 101.849 22.4152C102.806 22.4152 103.573 22.2114 104.147 21.8036C104.735 21.3823 105.119 20.8047 105.296 20.0708H108.19C107.917 21.5386 107.226 22.6871 106.117 23.5161C105.023 24.3451 103.614 24.7597 101.89 24.7597Z" fill="#B7AE9E"/>
<path d="M114.312 24.7597C113.327 24.7597 112.438 24.5354 111.644 24.0869C110.864 23.6384 110.242 23.02 109.777 22.2318C109.325 21.4299 109.099 20.5057 109.099 19.4592C109.099 18.4127 109.332 17.4954 109.797 16.7071C110.262 15.9052 110.885 15.28 111.665 14.8315C112.458 14.383 113.348 14.1588 114.333 14.1588C115.304 14.1588 116.18 14.383 116.96 14.8315C117.753 15.28 118.376 15.9052 118.827 16.7071C119.293 17.4954 119.525 18.4127 119.525 19.4592C119.525 20.5057 119.293 21.4299 118.827 22.2318C118.376 23.02 117.753 23.6384 116.96 24.0869C116.166 24.5354 115.284 24.7597 114.312 24.7597ZM114.312 22.4968C114.996 22.4968 115.592 22.2454 116.098 21.7425C116.604 21.226 116.857 20.4649 116.857 19.4592C116.857 18.4535 116.604 17.6992 116.098 17.1964C115.592 16.6799 115.003 16.4217 114.333 16.4217C113.635 16.4217 113.033 16.6799 112.527 17.1964C112.034 17.6992 111.788 18.4535 111.788 19.4592C111.788 20.4649 112.034 21.226 112.527 21.7425C113.033 22.2454 113.628 22.4968 114.312 22.4968Z" fill="#B7AE9E"/>
<path d="M120.848 24.515V14.4034H123.187L123.434 16.2994C123.803 15.647 124.302 15.1305 124.932 14.75C125.575 14.3559 126.327 14.1588 127.189 14.1588V16.9109H126.451C125.876 16.9109 125.363 16.9993 124.911 17.176C124.46 17.3526 124.104 17.6584 123.844 18.0933C123.598 18.5283 123.475 19.133 123.475 19.9077V24.515H120.848Z" fill="#B7AE9E"/>
<path d="M127.959 29V14.4034H130.298L130.586 15.8509C130.914 15.4024 131.345 15.0082 131.879 14.6685C132.426 14.3287 133.13 14.1588 133.992 14.1588C134.95 14.1588 135.805 14.3898 136.558 14.8519C137.31 15.314 137.905 15.946 138.343 16.7479C138.781 17.5497 139 18.4603 139 19.4796C139 20.4989 138.781 21.4095 138.343 22.2114C137.905 22.9996 137.31 23.6248 136.558 24.0869C135.805 24.5354 134.95 24.7597 133.992 24.7597C133.226 24.7597 132.556 24.617 131.981 24.3315C131.407 24.0461 130.941 23.6452 130.586 23.1288V29H127.959ZM133.438 22.4764C134.273 22.4764 134.964 22.1978 135.511 21.6406C136.058 21.0833 136.332 20.363 136.332 19.4796C136.332 18.5962 136.058 17.8691 135.511 17.2983C134.964 16.7275 134.273 16.4421 133.438 16.4421C132.59 16.4421 131.892 16.7275 131.345 17.2983C130.811 17.8555 130.545 18.5758 130.545 19.4592C130.545 20.3426 130.811 21.0697 131.345 21.6406C131.892 22.1978 132.59 22.4764 133.438 22.4764Z" fill="#B7AE9E"/>
<path fill-rule="evenodd" clip-rule="evenodd" d="M1 19C10.5343 19 16 13.5343 16 4C16 13.5343 21.4657 19 31 19C21.4657 19 16 24.4657 16 34C16 24.4657 10.5343 19 1 19Z" fill="#B7AE9E"/>
</svg>
