<svg width="140" height="38" viewBox="0 0 140 38" fill="none" xmlns="http://www.w3.org/2000/svg">
<path d="M51.8584 25.6076C55.8073 25.6076 58.4734 23.4928 58.4734 20.1142C58.4734 12.97 49.2174 16.0134 49.2174 12.2479C49.2174 11.1905 50.148 10.4683 51.632 10.4683C53.3172 10.4683 54.3736 11.3968 54.4994 12.8153H58.0961C57.9955 9.38508 55.43 7.14126 51.632 7.14126C48.0604 7.14126 45.5452 9.25613 45.5452 12.2479C45.5452 19.3404 54.6754 16.6324 54.6754 20.1657C54.6754 21.5327 53.5436 22.2548 51.8584 22.2548C49.9971 22.2548 48.815 21.0942 48.664 19.2631H45.0421C45.193 23.1059 47.8592 25.6076 51.8584 25.6076Z" fill="#B7AE9E"/>
<path d="M59.3288 30.6627H62.825V24.2407C63.5041 25.1176 64.7365 25.6076 66.1702 25.6076C69.8173 25.6076 72.2822 22.9512 72.2822 18.902C72.2822 14.8528 70.0185 12.1963 66.472 12.1963C64.8371 12.1963 63.5795 12.8153 62.825 13.8211V12.4026H59.3288V30.6627ZM65.7426 22.5127C63.8562 22.5127 62.6237 21.0684 62.6237 18.902C62.6237 16.7097 63.8562 15.2654 65.7426 15.2654C67.5787 15.2654 68.8364 16.7097 68.8364 18.902C68.8364 21.0684 67.5787 22.5127 65.7426 22.5127Z" fill="#B7AE9E"/>
<path d="M73.1282 25.4013H76.6243V18.283C76.6243 16.6066 77.7059 15.3944 79.2402 15.3944C80.699 15.3944 81.7051 16.5292 81.7051 18.1025V25.4013H85.2012V17.3029C85.2012 14.3112 83.34 12.1963 80.4978 12.1963C78.7371 12.1963 77.3537 12.9442 76.6243 14.208V6.75439H73.1282V25.4013Z" fill="#B7AE9E"/>
<path d="M94.9815 20.9911C94.7049 22.1001 93.7742 22.6675 92.3657 22.6675C90.6051 22.6675 89.4732 21.5327 89.2217 19.7015H98.3268C98.3519 19.4178 98.3771 19.0309 98.3771 18.5409C98.3771 15.5749 96.5913 12.1963 92.1142 12.1963C87.8132 12.1963 85.8513 15.5749 85.8513 18.8762C85.8513 22.1516 88.0647 25.6076 92.3657 25.6076C95.4846 25.6076 97.8992 23.8023 98.4023 20.9911H94.9815ZM92.1142 14.827C93.7994 14.827 94.7803 15.9876 94.8809 17.4319H89.272C89.5738 15.6265 90.5296 14.827 92.1142 14.827Z" fill="#B7AE9E"/>
<path d="M107.546 15.3944V12.4026H105.742C104.208 12.4026 103.252 12.9442 102.573 14.5691V12.4026H99.0519V25.4013H102.573V19.0825C102.573 16.8645 103.353 15.3944 105.088 15.3944H107.546Z" fill="#B7AE9E"/>
<path d="M119.619 12.4026H116.098V19.521C116.098 21.1716 115.017 22.4096 113.482 22.4096C112.049 22.4096 111.042 21.2748 111.042 19.7015V12.4026H107.546V20.501C107.546 23.467 109.408 25.6076 112.25 25.6076C113.985 25.6076 115.394 24.8339 116.098 23.5959V25.4013H119.619V12.4026Z" fill="#B7AE9E"/>
<path d="M121.129 25.4013H124.625V6.75439H121.129V25.4013Z" fill="#B7AE9E"/>
<path d="M134.606 20.9911C134.33 22.1001 133.399 22.6675 131.99 22.6675C130.23 22.6675 129.098 21.5327 128.846 19.7015H137.951C137.977 19.4178 138.002 19.0309 138.002 18.5409C138.002 15.5749 136.216 12.1963 131.739 12.1963C127.438 12.1963 125.476 15.5749 125.476 18.8762C125.476 22.1516 127.689 25.6076 131.99 25.6076C135.109 25.6076 137.524 23.8023 138.027 20.9911H134.606ZM131.739 14.827C133.424 14.827 134.405 15.9876 134.506 17.4319H128.897C129.198 15.6265 130.154 14.827 131.739 14.827Z" fill="#B7AE9E"/>
<path fill-rule="evenodd" clip-rule="evenodd" d="M20.0727 32.4056C27.3499 32.4056 33.2492 26.3565 33.2492 18.8945C33.2492 11.4326 27.3499 5.38343 20.0727 5.38343C12.7956 5.38343 6.89625 11.4326 6.89625 18.8945C6.89625 26.3565 12.7956 32.4056 20.0727 32.4056ZM20.0727 34.939C28.7144 34.939 35.7198 27.7556 35.7198 18.8945C35.7198 10.0334 28.7144 2.8501 20.0727 2.8501C11.4311 2.8501 4.42566 10.0334 4.42566 18.8945C4.42566 27.7556 11.4311 34.939 20.0727 34.939Z" fill="#B7AE9E"/>
<path fill-rule="evenodd" clip-rule="evenodd" d="M16.2565 29.2031C18.944 28.4945 22.0655 26.6754 24.8633 23.8066C27.661 20.9379 29.435 17.7371 30.1261 14.9813C30.8332 12.1619 30.3269 10.3014 29.3895 9.34025C28.4521 8.37905 26.6378 7.85993 23.8881 8.58493C21.2007 9.29355 18.0791 11.1127 15.2814 13.9814C12.4837 16.8502 10.7096 20.051 10.0186 22.8068C9.31151 25.6262 9.81777 27.4866 10.7552 28.4478C11.6926 29.409 13.5069 29.9281 16.2565 29.2031ZM9.00819 30.2392C12.619 33.9417 20.4997 31.8637 26.6102 25.598C32.7208 19.3322 34.7473 11.2514 31.1365 7.54891C27.5257 3.84643 19.645 5.92436 13.5344 12.1901C7.42388 18.4558 5.39741 26.5367 9.00819 30.2392Z" fill="#B7AE9E"/>
<path fill-rule="evenodd" clip-rule="evenodd" d="M30.1264 22.8046C29.4353 20.0489 27.6613 16.8481 24.8636 13.9793C22.0658 11.1105 18.9443 9.29144 16.2568 8.58282C13.5072 7.85782 11.6928 8.37693 10.7554 9.33813C9.81806 10.2993 9.3118 12.1598 10.0188 14.9792C10.7099 17.7349 12.484 20.9357 15.2817 23.8045C18.0794 26.6733 21.201 28.4924 23.8884 29.201C26.638 29.926 28.4524 29.4069 29.3898 28.4457C30.3272 27.4845 30.8334 25.6241 30.1264 22.8046ZM31.1368 30.2371C34.7475 26.5346 32.7211 18.4537 26.6105 12.188C20.5 5.92224 12.6193 3.84431 9.00848 7.54679C5.3977 11.2493 7.42417 19.3301 13.5347 25.5959C19.6453 31.8616 27.526 33.9395 31.1368 30.2371Z" fill="#B7AE9E"/>
</svg>
