<svg width="140" height="38" viewBox="0 0 140 38" fill="none" xmlns="http://www.w3.org/2000/svg">
<path d="M40 19C40 17.5974 40.2574 16.3717 40.7721 15.323C41.2994 14.2612 42.0463 13.4419 43.013 12.8652C43.9922 12.2884 45.1409 12 46.4591 12C47.4885 12 48.4113 12.2097 49.2273 12.6292C50.0433 13.0487 50.7024 13.6386 51.2045 14.3989C51.7067 15.1592 52.008 16.0375 52.1084 17.0337H49.2838C49.1206 16.2472 48.7753 15.6311 48.2481 15.1854C47.7333 14.7266 47.0868 14.4972 46.3084 14.4972C45.2539 14.4972 44.419 14.9101 43.8039 15.736C43.1887 16.5618 42.8812 17.6498 42.8812 19C42.8812 20.3371 43.1887 21.4251 43.8039 22.264C44.419 23.0899 45.2539 23.5028 46.3084 23.5028C47.0868 23.5028 47.7333 23.28 48.2481 22.8343C48.7753 22.3755 49.1206 21.7528 49.2838 20.9663H52.1084C52.008 21.9625 51.7067 22.8408 51.2045 23.6011C50.7024 24.3614 50.0433 24.9513 49.2273 25.3708C48.4113 25.7903 47.4885 26 46.4591 26C45.1409 26 43.9922 25.7116 43.013 25.1348C42.0463 24.5581 41.2994 23.7453 40.7721 22.6966C40.2574 21.6348 40 20.4026 40 19Z" fill="#B7AE9E"/>
<path d="M52.7892 12.118H55.4444V25.882H52.7892V12.118Z" fill="#B7AE9E"/>
<path d="M61.268 26C60.2512 26 59.3535 25.7903 58.5752 25.3708C57.8094 24.9382 57.2131 24.3287 56.7862 23.5421C56.3719 22.7556 56.1648 21.8511 56.1648 20.8287C56.1648 19.8062 56.3719 18.9017 56.7862 18.1152C57.2131 17.3287 57.8094 16.7257 58.5752 16.3062C59.3535 15.8736 60.2512 15.6573 61.268 15.6573C62.2849 15.6573 63.1763 15.8736 63.9421 16.3062C64.7204 16.7257 65.3167 17.3287 65.731 18.1152C66.1579 18.9017 66.3713 19.8062 66.3713 20.8287C66.3713 21.8642 66.1579 22.7753 65.731 23.5618C65.3167 24.3352 64.7204 24.9382 63.9421 25.3708C63.1763 25.7903 62.2849 26 61.268 26ZM61.268 23.7388C62.0087 23.7388 62.5925 23.47 63.0193 22.9326C63.4587 22.3951 63.6784 21.6938 63.6784 20.8287C63.6784 19.9635 63.4587 19.2622 63.0193 18.7247C62.5925 18.1873 62.0087 17.9185 61.268 17.9185C60.5399 17.9185 59.9561 18.1873 59.5167 18.7247C59.0899 19.2622 58.8765 19.9635 58.8765 20.8287C58.8765 21.6938 59.0899 22.3951 59.5167 22.9326C59.9561 23.47 60.5399 23.7388 61.268 23.7388Z" fill="#B7AE9E"/>
<path d="M76.1938 15.7753V25.882H73.8399L73.5951 24.6629C73.2561 25.0824 72.8607 25.4101 72.4087 25.6461C71.9568 25.882 71.4044 26 70.7516 26C69.6217 26 68.699 25.6395 67.9834 24.9185C67.2678 24.1845 66.91 22.9654 66.91 21.2612V15.7753H69.5652V20.927C69.5652 21.8446 69.7159 22.5393 70.0172 23.0112C70.331 23.47 70.8081 23.6994 71.4484 23.6994C72.1137 23.6994 72.6284 23.4438 72.9925 22.9326C73.3566 22.4082 73.5386 21.6807 73.5386 20.75V15.7753H76.1938Z" fill="#B7AE9E"/>
<path d="M86.9658 12.118V25.882H84.6496L84.386 24.486C83.6453 25.4953 82.6409 26 81.373 26C80.5193 26 79.7535 25.7903 79.0756 25.3708C78.3976 24.9382 77.8641 24.3287 77.4749 23.5421C77.0983 22.7556 76.91 21.8446 76.91 20.809C76.91 19.7865 77.0983 18.8886 77.4749 18.1152C77.8641 17.3287 78.3976 16.7257 79.0756 16.3062C79.766 15.8736 80.5381 15.6573 81.3918 15.6573C82.6472 15.6573 83.6202 16.1161 84.3106 17.0337V12.118H86.9658ZM81.9944 23.7388C82.71 23.7388 83.2812 23.4766 83.708 22.9522C84.1349 22.4148 84.3483 21.7135 84.3483 20.8483C84.3483 19.97 84.1349 19.2622 83.708 18.7247C83.2812 18.1873 82.71 17.9185 81.9944 17.9185C81.2788 17.9185 80.7013 18.1873 80.2619 18.7247C79.8351 19.2622 79.6217 19.9635 79.6217 20.8287C79.6217 21.6938 79.8351 22.3951 80.2619 22.9326C80.7013 23.47 81.2788 23.7388 81.9944 23.7388Z" fill="#B7AE9E"/>
<path d="M87.3105 12.118L90.2294 12.0983L92.6586 22.1657L95.2385 12.118H97.7807L100.285 22.1657L102.771 12.118H105.633L101.98 25.882H98.7222L96.4436 16.7388L94.2216 25.882H90.9638L87.3105 12.118Z" fill="#B7AE9E"/>
<path d="M114.493 23.5421V25.882H113.137C111.92 25.882 111.323 25.3315 111.349 24.2303C110.997 24.8071 110.564 25.2463 110.049 25.5478C109.534 25.8492 108.913 26 108.185 26C107.105 26 106.233 25.7444 105.567 25.2331C104.915 24.7088 104.588 23.9747 104.588 23.0309C104.588 21.956 104.965 21.1301 105.718 20.5534C106.484 19.9635 107.589 19.6685 109.032 19.6685H110.953V19.177C110.953 18.7182 110.79 18.3577 110.463 18.0955C110.137 17.8202 109.698 17.6826 109.145 17.6826C108.656 17.6826 108.254 17.794 107.94 18.0169C107.626 18.2397 107.438 18.5412 107.375 18.9213H104.814C104.902 17.8858 105.341 17.0861 106.132 16.5225C106.923 15.9457 107.971 15.6573 109.277 15.6573C110.645 15.6573 111.7 15.9719 112.441 16.6011C113.194 17.2303 113.571 18.1414 113.571 19.3343V22.8933C113.571 23.1423 113.621 23.3127 113.721 23.4045C113.822 23.4963 113.979 23.5421 114.192 23.5421H114.493ZM110.953 21.5169H109.013C108.461 21.5169 108.028 21.6348 107.714 21.8708C107.413 22.0936 107.262 22.4148 107.262 22.8343C107.262 23.1882 107.388 23.47 107.639 23.6798C107.902 23.8895 108.254 23.9944 108.693 23.9944C109.384 23.9944 109.93 23.7912 110.332 23.3848C110.733 22.9654 110.941 22.4082 110.953 21.7135V21.5169Z" fill="#B7AE9E"/>
<path d="M115.389 18.1152H113.788V15.7753H115.389V12.9438H118.044V15.7753H120.247V18.1152H118.044V22.5393C118.044 22.8933 118.113 23.1489 118.251 23.3062C118.402 23.4635 118.646 23.5421 118.985 23.5421H120.36V25.882H118.157C116.311 25.882 115.389 24.9185 115.389 22.9916V18.1152Z" fill="#B7AE9E"/>
<path d="M129.882 22.0478C129.706 23.28 129.204 24.25 128.375 24.9579C127.559 25.6526 126.498 26 125.193 26C124.188 26 123.31 25.7903 122.556 25.3708C121.803 24.9382 121.219 24.3287 120.805 23.5421C120.403 22.7556 120.203 21.8511 120.203 20.8287C120.203 19.7931 120.403 18.8886 120.805 18.1152C121.219 17.3287 121.803 16.7257 122.556 16.3062C123.322 15.8736 124.207 15.6573 125.212 15.6573C126.505 15.6573 127.559 16.0047 128.375 16.6994C129.191 17.3811 129.693 18.3315 129.882 19.5506H127.132C127.019 19.0524 126.793 18.6592 126.455 18.3708C126.116 18.0693 125.695 17.9185 125.193 17.9185C124.502 17.9185 123.95 18.1873 123.536 18.7247C123.121 19.2622 122.914 19.9635 122.914 20.8287C122.914 21.6938 123.121 22.3951 123.536 22.9326C123.95 23.47 124.502 23.7388 125.193 23.7388C125.708 23.7388 126.134 23.588 126.473 23.2865C126.825 22.985 127.051 22.5721 127.151 22.0478H129.882Z" fill="#B7AE9E"/>
<path d="M136.083 15.6573C137.226 15.6573 138.161 16.0243 138.889 16.7584C139.63 17.4925 140 18.7051 140 20.3961V25.882H137.345V20.514C137.345 19.6751 137.182 19.0393 136.855 18.6067C136.529 18.161 136.039 17.9382 135.386 17.9382C134.708 17.9382 134.175 18.1807 133.786 18.6657C133.409 19.1507 133.221 19.8258 133.221 20.691V25.882H130.566V12.118H133.221V17.014C133.936 16.1095 134.89 15.6573 136.083 15.6573Z" fill="#B7AE9E"/>
<path d="M17.4247 20.3635C17.0551 15.8839 13.3023 12.3635 8.72726 12.3635C3.90733 12.3635 0 16.2709 0 21.0908C0 25.9107 3.90733 29.8181 8.72726 29.8181H21.8182V20.3635H17.4247Z" fill="#CFC6B6"/>
<circle cx="21.091" cy="18.9091" r="10.9091" fill="#B7AE9E"/>
</svg>
