<svg width="140" height="38" viewBox="0 0 140 38" fill="none" xmlns="http://www.w3.org/2000/svg">
<path d="M46.0938 27.8677C47.9835 27.8677 49.5372 26.858 50.0201 25.3436V27.6921H52.8127V21.766C52.8127 20.4271 51.8048 19.2858 50.4401 19.2858H46.4507V21.766H49.2853C49.6422 21.766 49.8732 22.0074 49.8732 22.3805C49.8732 23.8072 48.0675 25.19 46.2408 25.19C43.8052 25.19 41.8735 23.1926 41.8735 20.0101C41.8735 16.8275 43.8052 14.9838 46.3038 14.9838C48.1934 14.9838 49.4952 16.0593 49.7262 17.7055H52.8547C52.6657 14.4132 50.0201 12.1525 46.3248 12.1525C42.4404 12.1525 38.871 14.7644 38.871 20.0101C38.871 25.2558 42.3354 27.8677 46.0938 27.8677Z" fill="#B7AE9E"/>
<path d="M54.0114 27.6921H56.9299V11.8232H54.0114V27.6921Z" fill="#B7AE9E"/>
<path d="M63.2254 27.8677C66.4799 27.8677 68.8105 25.4533 68.8105 22.161C68.8105 18.8688 66.4799 16.4544 63.2254 16.4544C59.971 16.4544 57.6404 18.8688 57.6404 22.161C57.6404 25.4533 59.971 27.8677 63.2254 27.8677ZM63.2254 25.2339C61.6507 25.2339 60.5799 23.9828 60.5799 22.161C60.5799 20.3174 61.6507 19.0663 63.2254 19.0663C64.8001 19.0663 65.871 20.3174 65.871 22.161C65.871 23.9828 64.8001 25.2339 63.2254 25.2339Z" fill="#B7AE9E"/>
<path d="M75.341 27.8677C78.4695 27.8677 80.3382 25.607 80.3382 22.161C80.3382 18.7151 78.4695 16.4544 75.383 16.4544C74.0602 16.4544 73.0314 16.9812 72.4435 17.7933V11.8232H69.525V27.6921H72.4435V26.4849C73.0314 27.3409 74.1232 27.8677 75.341 27.8677ZM74.8791 25.2339C73.3043 25.2339 72.2755 24.0047 72.2755 22.161C72.2755 20.2954 73.3043 19.0663 74.8791 19.0663C76.4118 19.0663 77.4616 20.2954 77.4616 22.161C77.4616 24.0047 76.4118 25.2339 74.8791 25.2339Z" fill="#B7AE9E"/>
<path d="M85.2236 16.4544C82.3261 16.4544 80.6044 18.2322 80.4784 20.4491H83.082C83.1239 19.5272 83.7748 18.6932 85.0556 18.6932C86.2524 18.6932 86.9453 19.3297 86.9453 20.2515C86.9453 20.7124 86.6723 21.0636 86.1474 21.0636H84.3627C82.0531 21.0636 80.4994 22.3805 80.4994 24.5534C80.4994 26.441 81.9062 27.8677 83.9638 27.8677C85.4126 27.8677 86.5884 27.1873 86.9453 26.1557V27.6921H89.8428V20.5807C89.8428 18.0786 87.8901 16.4544 85.2236 16.4544ZM84.6987 25.6509C83.8798 25.6509 83.2919 25.1461 83.2919 24.4218C83.2919 23.5658 83.9218 22.9951 84.8037 22.9951H86.9453V23.1487C86.9453 24.5534 86.1264 25.6509 84.6987 25.6509Z" fill="#B7AE9E"/>
<path d="M90.9643 27.6921H93.8828V11.8232H90.9643V27.6921Z" fill="#B7AE9E"/>
<path d="M95.4331 27.6921H101.438C104.546 27.6921 106.687 26.024 106.687 23.1048C106.687 21.0856 105.553 19.8564 104.21 19.3077C105.07 18.8249 105.931 17.7274 105.931 16.2788C105.931 13.7108 103.937 12.3281 101.27 12.3281H95.4331V27.6921ZM98.5406 18.1883V14.9399H100.976C102.383 14.9399 103.013 15.5326 103.013 16.5641C103.013 17.5957 102.383 18.1883 101.039 18.1883H98.5406ZM98.5406 24.8388V20.9758H101.165C102.908 20.9758 103.685 21.6782 103.685 22.9292C103.685 24.1803 102.908 24.8388 101.165 24.8388H98.5406Z" fill="#B7AE9E"/>
<path d="M111.764 16.4544C108.867 16.4544 107.145 18.2322 107.019 20.4491H109.623C109.665 19.5272 110.316 18.6932 111.596 18.6932C112.793 18.6932 113.486 19.3297 113.486 20.2515C113.486 20.7124 113.213 21.0636 112.688 21.0636H110.904C108.594 21.0636 107.04 22.3805 107.04 24.5534C107.04 26.441 108.447 27.8677 110.505 27.8677C111.953 27.8677 113.129 27.1873 113.486 26.1557V27.6921H116.384V20.5807C116.384 18.0786 114.431 16.4544 111.764 16.4544ZM111.239 25.6509C110.421 25.6509 109.833 25.1461 109.833 24.4218C109.833 23.5658 110.463 22.9951 111.344 22.9951H113.486V23.1487C113.486 24.5534 112.667 25.6509 111.239 25.6509Z" fill="#B7AE9E"/>
<path d="M117.337 27.6921H120.277V21.6343C120.277 20.2076 121.179 19.176 122.46 19.176C123.678 19.176 124.497 20.1418 124.497 21.4806V27.6921H127.436V20.8002C127.436 18.2542 125.883 16.4544 123.489 16.4544C122.04 16.4544 120.865 17.0909 120.277 18.1664V16.63H117.337V27.6921Z" fill="#B7AE9E"/>
<path d="M135.814 27.6921H139.342L134.785 20.9758L139.006 16.63H135.31L131.636 20.4052V11.8232H128.696V27.6921H131.636V24.2242L132.812 23.017L135.814 27.6921Z" fill="#B7AE9E"/>
<path d="M22.781 2.53418H10.1602L0 12.9524V25.8937L10.1602 36.312H22.781L32.9412 25.8937V12.9524L22.781 2.53418ZM11.9064 26.0565L5.3976 19.3824L11.9064 12.7082C14.3671 10.185 18.4153 10.185 20.876 12.7082L27.3848 19.3824L20.876 26.0565C18.4153 28.5797 14.4465 28.5797 11.9064 26.0565Z" fill="#B7AE9E"/>
</svg>
