<svg width="140" height="38" viewBox="0 0 140 38" fill="none" xmlns="http://www.w3.org/2000/svg">
<path d="M40.0236 11.8232V25.9221H43.0422V20.0969H48.791V17.6879H43.0422V14.4298H49.6754V11.8232H40.0236Z" fill="#B7AE9E"/>
<path d="M57.2465 19.7218H52.8051C52.8179 19.5243 52.8563 19.3005 52.9204 19.0504C52.9973 18.8003 53.1191 18.5633 53.2857 18.3395C53.4652 18.1157 53.6959 17.9314 53.9779 17.7866C54.2727 17.6286 54.638 17.5497 55.0738 17.5497C55.7404 17.5497 56.2338 17.734 56.5543 18.1026C56.8876 18.4712 57.1183 19.0109 57.2465 19.7218ZM52.8051 21.4989H59.9767C60.0279 20.7091 59.9639 19.9521 59.7844 19.2281C59.605 18.5041 59.3101 17.859 58.9 17.293C58.5026 16.7269 57.9899 16.2793 57.3618 15.9502C56.7337 15.6079 55.9967 15.4368 55.1507 15.4368C54.3945 15.4368 53.7023 15.575 53.0742 15.8515C52.459 16.1279 51.927 16.5097 51.4784 16.9968C51.0298 17.4707 50.6837 18.0367 50.4402 18.6949C50.1966 19.3532 50.0748 20.064 50.0748 20.8275C50.0748 21.6174 50.1902 22.3414 50.4209 22.9996C50.6645 23.6578 51.0041 24.2239 51.44 24.6978C51.8758 25.1717 52.4077 25.5403 53.0358 25.8036C53.6639 26.0537 54.3688 26.1788 55.1507 26.1788C56.2787 26.1788 57.2401 25.9155 58.0348 25.3889C58.8295 24.8624 59.4191 23.9869 59.8036 22.7627H57.4003C57.3105 23.0786 57.067 23.3814 56.6697 23.671C56.2723 23.9475 55.798 24.0857 55.2469 24.0857C54.4778 24.0857 53.8882 23.8816 53.478 23.4735C53.0678 23.0655 52.8435 22.4072 52.8051 21.4989Z" fill="#B7AE9E"/>
<path d="M60.9038 18.8529C60.9422 18.1947 61.1024 17.6484 61.3844 17.214C61.6664 16.7796 62.0253 16.4307 62.4611 16.1674C62.8969 15.9041 63.384 15.7198 63.9224 15.6145C64.4736 15.4961 65.0247 15.4368 65.5759 15.4368C66.0758 15.4368 66.5821 15.4763 67.0948 15.5553C67.6075 15.6211 68.0754 15.7593 68.4984 15.97C68.9214 16.1806 69.2674 16.4768 69.5366 16.8585C69.8058 17.2271 69.9404 17.7208 69.9404 18.3395V23.6513C69.9404 24.112 69.966 24.553 70.0173 24.9743C70.0686 25.3955 70.1583 25.7115 70.2865 25.9221H67.5178C67.4665 25.7641 67.4217 25.6061 67.3832 25.4482C67.3576 25.277 67.3384 25.1059 67.3255 24.9348C66.8897 25.3955 66.377 25.718 65.7874 25.9023C65.1978 26.0866 64.5953 26.1788 63.9801 26.1788C63.5058 26.1788 63.0636 26.1195 62.6534 26.0011C62.2432 25.8826 61.8843 25.6983 61.5767 25.4482C61.2691 25.1981 61.0255 24.8821 60.8461 24.5004C60.6795 24.1186 60.5961 23.6644 60.5961 23.1379C60.5961 22.5586 60.6923 22.0847 60.8845 21.7161C61.0896 21.3344 61.346 21.0316 61.6536 20.8078C61.9741 20.584 62.333 20.4195 62.7303 20.3141C63.1405 20.1957 63.5507 20.1035 63.9608 20.0377C64.371 19.9719 64.7748 19.9192 65.1721 19.8797C65.5695 19.8402 65.922 19.781 66.2296 19.702C66.5372 19.623 66.7808 19.5111 66.9602 19.3663C67.1397 19.2083 67.223 18.9846 67.2102 18.6949C67.2102 18.3922 67.1589 18.1552 67.0564 17.9841C66.9666 17.7998 66.8385 17.6616 66.6718 17.5694C66.518 17.4641 66.3321 17.3983 66.1142 17.3719C65.9092 17.3325 65.6848 17.3127 65.4413 17.3127C64.903 17.3127 64.48 17.4312 64.1723 17.6681C63.8647 17.9051 63.6853 18.3 63.634 18.8529H60.9038ZM67.2102 20.9263C67.0948 21.0316 66.9474 21.1172 66.768 21.183C66.6013 21.2356 66.4155 21.2817 66.2104 21.3212C66.0181 21.3607 65.813 21.3936 65.5951 21.4199C65.3772 21.4463 65.1593 21.4792 64.9414 21.5187C64.7363 21.5582 64.5312 21.6108 64.3261 21.6766C64.1339 21.7425 63.9608 21.8346 63.807 21.9531C63.666 22.0584 63.5507 22.1966 63.4609 22.3678C63.3712 22.5389 63.3264 22.7561 63.3264 23.0194C63.3264 23.2695 63.3712 23.4801 63.4609 23.6513C63.5507 23.8224 63.6724 23.9606 63.8262 24.0659C63.9801 24.1581 64.1595 24.2239 64.3646 24.2634C64.5697 24.3029 64.7812 24.3226 64.9991 24.3226C65.5374 24.3226 65.954 24.2305 66.2488 24.0462C66.5436 23.8619 66.7615 23.6447 66.9025 23.3946C67.0435 23.1313 67.1269 22.868 67.1525 22.6047C67.1909 22.3414 67.2102 22.1308 67.2102 21.9728V20.9263Z" fill="#B7AE9E"/>
<path d="M74.9436 15.7133V12.6526H72.2134V15.7133H70.5599V17.5892H72.2134V23.6118C72.2134 24.1252 72.2967 24.5398 72.4633 24.8558C72.6299 25.1717 72.8543 25.4153 73.1362 25.5864C73.4311 25.7575 73.7643 25.8694 74.136 25.9221C74.5206 25.9879 74.9243 26.0208 75.3473 26.0208C75.6165 26.0208 75.8921 26.0142 76.1741 26.0011C76.4561 25.9879 76.7124 25.9616 76.9432 25.9221V23.75C76.815 23.7763 76.6804 23.7961 76.5394 23.8092C76.3984 23.8224 76.251 23.829 76.0972 23.829C75.6357 23.829 75.3281 23.75 75.1743 23.592C75.0205 23.4341 74.9436 23.1181 74.9436 22.6442V17.5892H76.9432V15.7133H74.9436Z" fill="#B7AE9E"/>
<path d="M77.6654 11.8232V25.9221H80.3956V20.5708C80.3956 19.5309 80.5622 18.7871 80.8955 18.3395C81.2287 17.8788 81.7671 17.6484 82.5105 17.6484C83.1643 17.6484 83.6193 17.859 83.8756 18.2803C84.132 18.6884 84.2602 19.3137 84.2602 20.1562V25.9221H86.9904V19.6428C86.9904 19.0109 86.9327 18.4382 86.8174 17.9248C86.7148 17.3983 86.5289 16.9573 86.2598 16.6018C85.9906 16.2332 85.6189 15.9502 85.1446 15.7528C84.6832 15.5421 84.0871 15.4368 83.3565 15.4368C82.8438 15.4368 82.3183 15.575 81.7799 15.8515C81.2416 16.1148 80.7993 16.5426 80.4533 17.135H80.3956V11.8232H77.6654Z" fill="#B7AE9E"/>
<path d="M95.1767 19.7218H90.7353C90.7481 19.5243 90.7865 19.3005 90.8506 19.0504C90.9275 18.8003 91.0493 18.5633 91.2159 18.3395C91.3954 18.1157 91.6261 17.9314 91.9081 17.7866C92.2029 17.6286 92.5682 17.5497 93.004 17.5497C93.6706 17.5497 94.1641 17.734 94.4845 18.1026C94.8178 18.4712 95.0485 19.0109 95.1767 19.7218ZM90.7353 21.4989H97.9069C97.9582 20.7091 97.8941 19.9521 97.7146 19.2281C97.5352 18.5041 97.2404 17.859 96.8302 17.293C96.4328 16.7269 95.9201 16.2793 95.292 15.9502C94.664 15.6079 93.9269 15.4368 93.081 15.4368C92.3247 15.4368 91.6325 15.575 91.0045 15.8515C90.3892 16.1279 89.8573 16.5097 89.4086 16.9968C88.96 17.4707 88.6139 18.0367 88.3704 18.6949C88.1268 19.3532 88.0051 20.064 88.0051 20.8275C88.0051 21.6174 88.1204 22.3414 88.3512 22.9996C88.5947 23.6578 88.9344 24.2239 89.3702 24.6978C89.806 25.1717 90.3379 25.5403 90.966 25.8036C91.5941 26.0537 92.2991 26.1788 93.081 26.1788C94.2089 26.1788 95.1703 25.9155 95.965 25.3889C96.7597 24.8624 97.3493 23.9869 97.7339 22.7627H95.3305C95.2408 23.0786 94.9972 23.3814 94.5999 23.671C94.2025 23.9475 93.7283 24.0857 93.1771 24.0857C92.408 24.0857 91.8184 23.8816 91.4082 23.4735C90.998 23.0655 90.7737 22.4072 90.7353 21.4989Z" fill="#B7AE9E"/>
<path d="M98.9493 15.7133V25.9221H101.68V21.3212C101.68 20.8605 101.724 20.4326 101.814 20.0377C101.904 19.6428 102.051 19.3005 102.256 19.0109C102.474 18.7081 102.756 18.4712 103.102 18.3C103.448 18.1289 103.871 18.0433 104.371 18.0433C104.538 18.0433 104.711 18.0565 104.89 18.0828C105.07 18.096 105.224 18.1157 105.352 18.1421V15.5355C105.134 15.4697 104.935 15.4368 104.756 15.4368C104.41 15.4368 104.077 15.4895 103.756 15.5948C103.436 15.7001 103.134 15.8515 102.852 16.0489C102.57 16.2332 102.32 16.4636 102.103 16.7401C101.885 17.0033 101.712 17.293 101.583 17.6089H101.545V15.7133H98.9493Z" fill="#B7AE9E"/>
<path d="M109.152 23.3156V14.4298H111.306C112.049 14.4298 112.671 14.5416 113.171 14.7654C113.684 14.9761 114.094 15.2854 114.401 15.6935C114.709 16.1016 114.927 16.5953 115.055 17.1745C115.196 17.7405 115.267 18.379 115.267 19.0899C115.267 19.8666 115.171 20.5248 114.978 21.0645C114.786 21.6042 114.53 22.0452 114.209 22.3875C113.889 22.7166 113.523 22.9536 113.113 23.0984C112.703 23.2432 112.28 23.3156 111.844 23.3156H109.152ZM106.134 11.8232V25.9221H112.056C113.107 25.9221 114.017 25.7444 114.786 25.3889C115.568 25.0203 116.215 24.5201 116.728 23.8882C117.253 23.2563 117.644 22.506 117.901 21.6371C118.157 20.7683 118.285 19.8205 118.285 18.7937C118.285 17.6221 118.125 16.6018 117.805 15.733C117.497 14.8642 117.061 14.1401 116.497 13.5609C115.946 12.9817 115.286 12.5473 114.517 12.2577C113.761 11.968 112.94 11.8232 112.056 11.8232H106.134Z" fill="#B7AE9E"/>
<path d="M126.211 19.7218H121.769C121.782 19.5243 121.821 19.3005 121.885 19.0504C121.962 18.8003 122.083 18.5633 122.25 18.3395C122.429 18.1157 122.66 17.9314 122.942 17.7866C123.237 17.6286 123.602 17.5497 124.038 17.5497C124.705 17.5497 125.198 17.734 125.519 18.1026C125.852 18.4712 126.083 19.0109 126.211 19.7218ZM121.769 21.4989H128.941C128.992 20.7091 128.928 19.9521 128.749 19.2281C128.569 18.5041 128.274 17.859 127.864 17.293C127.467 16.7269 126.954 16.2793 126.326 15.9502C125.698 15.6079 124.961 15.4368 124.115 15.4368C123.359 15.4368 122.667 15.575 122.039 15.8515C121.423 16.1279 120.891 16.5097 120.443 16.9968C119.994 17.4707 119.648 18.0367 119.404 18.6949C119.161 19.3532 119.039 20.064 119.039 20.8275C119.039 21.6174 119.155 22.3414 119.385 22.9996C119.629 23.6578 119.968 24.2239 120.404 24.6978C120.84 25.1717 121.372 25.5403 122 25.8036C122.628 26.0537 123.333 26.1788 124.115 26.1788C125.243 26.1788 126.204 25.9155 126.999 25.3889C127.794 24.8624 128.383 23.9869 128.768 22.7627H126.365C126.275 23.0786 126.031 23.3814 125.634 23.671C125.237 23.9475 124.762 24.0857 124.211 24.0857C123.442 24.0857 122.852 23.8816 122.442 23.4735C122.032 23.0655 121.808 22.4072 121.769 21.4989Z" fill="#B7AE9E"/>
<path d="M135.482 25.9221L138.847 15.7133H136.136L134.04 22.6837H134.002L131.906 15.7133H129.041L132.444 25.9221H135.482Z" fill="#B7AE9E"/>
<path d="M27.4696 9.24606C27.1622 8.93084 26.8548 8.61563 26.5474 8.30042C25.6251 7.29173 24.6414 6.28304 23.4118 5.65261C21.9977 4.8961 20.4607 5.08522 18.9237 5.08522C16.5874 5.08522 10.7466 5.08522 7.30365 5.08522L9.63995 8.30042C13.8822 8.30042 20.5222 8.30042 23.5962 8.30042C24.8874 8.30042 25.994 8.55259 27.0392 9.24606C27.2237 9.3091 27.4081 9.3091 27.4696 9.24606Z" fill="#B7AE9E"/>
<path d="M30.0513 14.4177C29.7439 14.1025 29.4365 13.7873 29.1291 13.472C28.2069 12.4634 27.2232 11.4547 25.9936 10.8242C24.5795 10.0677 23.0424 10.2569 21.5054 10.2569C19.4765 10.2569 14.6195 10.2569 11.1765 10.2569L13.5128 13.472C17.6936 13.472 23.4113 13.472 26.2395 13.472C27.5306 13.472 28.6373 13.7242 29.6824 14.4177C29.8054 14.4807 29.9284 14.4807 30.0513 14.4177Z" fill="#B7AE9E"/>
<path d="M32.941 19.4611C32.6336 19.1459 32.3262 18.8307 32.0187 18.5155C31.0965 17.5068 30.1128 16.4981 28.8832 15.8677C27.4691 15.1112 25.9321 15.3003 24.395 15.3003C22.4891 15.3003 18.3084 15.3003 14.9269 15.3003L17.2632 18.5155C21.321 18.5155 26.4854 18.5155 29.0676 18.5155C30.3588 18.5155 31.4654 18.7677 32.5106 19.4611C32.695 19.5242 32.818 19.5872 32.941 19.4611Z" fill="#B7AE9E"/>
<path d="M7.05725 27.9711C7.36466 28.2863 7.67207 28.6015 7.97947 28.9168C8.9017 29.9254 9.88539 30.9341 11.115 31.5645C12.5291 32.3211 14.0661 32.1319 15.6032 32.1319H27.2232L24.8869 28.9168C20.6447 28.9168 14.0047 28.9168 10.9306 28.9168C9.63948 28.9168 8.53281 28.6646 7.48762 27.9711C7.30318 27.9081 7.18021 27.9081 7.05725 27.9711Z" fill="#B7AE9E"/>
<path d="M4.47546 22.8044C4.78287 23.1196 5.09028 23.4348 5.39769 23.75C6.31991 24.7587 7.30361 25.7674 8.53324 26.3978C9.94731 27.1543 11.4843 26.9652 13.0214 26.9652H23.3503L21.014 23.75C16.8332 23.75 11.1155 23.75 8.28731 23.75C6.9962 23.75 5.88953 23.4978 4.84435 22.8044C4.72138 22.7413 4.59843 22.7413 4.47546 22.8044Z" fill="#B7AE9E"/>
<path d="M1.64709 17.6938C1.9545 18.009 2.26191 18.3242 2.56932 18.6394C3.49154 19.6481 4.47525 20.6568 5.70488 21.2872C7.11896 22.0437 8.65599 21.8546 10.193 21.8546H19.6612L17.3249 18.6394C13.2671 18.6394 8.10266 18.6394 5.52044 18.6394C4.22932 18.6394 3.12265 18.3872 2.07746 17.6938C1.89302 17.6307 1.77006 17.6307 1.64709 17.6938Z" fill="#B7AE9E"/>
</svg>
