<svg width="140" height="38" viewBox="0 0 140 38" fill="none" xmlns="http://www.w3.org/2000/svg">
<path d="M47.1809 22.0071H52.1616V25.0167H43.3787V9.01111H47.1809V22.0071Z" fill="#B7AE9E"/>
<path d="M55.6651 10.9719C54.998 10.9719 54.4495 10.7743 54.0196 10.3791C53.6046 9.96871 53.3971 9.46711 53.3971 8.87431C53.3971 8.26631 53.6046 7.76471 54.0196 7.36951C54.4495 6.95911 54.998 6.75391 55.6651 6.75391C56.3173 6.75391 56.8509 6.95911 57.266 7.36951C57.6959 7.76471 57.9108 8.26631 57.9108 8.87431C57.9108 9.46711 57.6959 9.96871 57.266 10.3791C56.8509 10.7743 56.3173 10.9719 55.6651 10.9719ZM57.5551 12.2943V25.0167H53.7528V12.2943H57.5551Z" fill="#B7AE9E"/>
<path d="M64.802 12.1119C65.6766 12.1119 66.44 12.2943 67.0923 12.6591C67.7593 13.0239 68.2707 13.5027 68.6265 14.0955V12.2943H72.4287V24.9939C72.4287 26.1643 72.199 27.2207 71.7394 28.1631C71.2947 29.1207 70.6054 29.8807 69.6716 30.4431C68.7525 31.0055 67.6037 31.2867 66.2251 31.2867C64.387 31.2867 62.8972 30.8383 61.7558 29.9415C60.6144 29.0599 59.9621 27.8591 59.7991 26.3391H63.5569C63.6754 26.8255 63.9571 27.2055 64.4018 27.4791C64.8465 27.7679 65.395 27.9123 66.0472 27.9123C66.8329 27.9123 67.4554 27.6767 67.915 27.2055C68.3893 26.7495 68.6265 26.0123 68.6265 24.9939V23.1927C68.2559 23.7855 67.7445 24.2719 67.0923 24.6519C66.44 25.0167 65.6766 25.1991 64.802 25.1991C63.7792 25.1991 62.8527 24.9331 62.0226 24.4011C61.1925 23.8539 60.5329 23.0863 60.0437 22.0983C59.5693 21.0951 59.3321 19.9399 59.3321 18.6327C59.3321 17.3255 59.5693 16.1779 60.0437 15.1899C60.5329 14.2019 61.1925 13.4419 62.0226 12.9099C62.8527 12.3779 63.7792 12.1119 64.802 12.1119ZM68.6265 18.6555C68.6265 17.6827 68.3597 16.9151 67.826 16.3527C67.3072 15.7903 66.6698 15.5091 65.9138 15.5091C65.1578 15.5091 64.513 15.7903 63.9793 16.3527C63.4605 16.8999 63.2011 17.6599 63.2011 18.6327C63.2011 19.6055 63.4605 20.3807 63.9793 20.9583C64.513 21.5207 65.1578 21.8019 65.9138 21.8019C66.6698 21.8019 67.3072 21.5207 67.826 20.9583C68.3597 20.3959 68.6265 19.6283 68.6265 18.6555Z" fill="#B7AE9E"/>
<path d="M82.5838 12.1575C84.0069 12.1575 85.1483 12.6439 86.0081 13.6167C86.8678 14.5743 87.2977 15.8967 87.2977 17.5839V25.0167H83.5177V18.1083C83.5177 17.2571 83.3028 16.5959 82.8729 16.1247C82.443 15.6535 81.8649 15.4179 81.1385 15.4179C80.4122 15.4179 79.8341 15.6535 79.4042 16.1247C78.9743 16.5959 78.7594 17.2571 78.7594 18.1083V25.0167H74.9571V8.14471H78.7594V14.0043C79.1448 13.4419 79.671 12.9935 80.3381 12.6591C81.0051 12.3247 81.7537 12.1575 82.5838 12.1575Z" fill="#B7AE9E"/>
<path d="M96.6327 21.7107V25.0167H94.6983C93.3197 25.0167 92.245 24.6747 91.4741 23.9907C90.7033 23.2915 90.3179 22.1591 90.3179 20.5935V15.5319H88.8059V12.2943H90.3179V9.19351H94.1201V12.2943H96.6105V15.5319H94.1201V20.6391C94.1201 21.0191 94.2091 21.2927 94.387 21.4599C94.5649 21.6271 94.8613 21.7107 95.2764 21.7107H96.6327Z" fill="#B7AE9E"/>
<path d="M102.331 14.0955C102.686 13.5027 103.198 13.0239 103.865 12.6591C104.532 12.2943 105.295 12.1119 106.155 12.1119C107.178 12.1119 108.104 12.3779 108.934 12.9099C109.765 13.4419 110.417 14.2019 110.891 15.1899C111.38 16.1779 111.625 17.3255 111.625 18.6327C111.625 19.9399 111.38 21.0951 110.891 22.0983C110.417 23.0863 109.765 23.8539 108.934 24.4011C108.104 24.9331 107.178 25.1991 106.155 25.1991C105.28 25.1991 104.517 25.0243 103.865 24.6747C103.213 24.3099 102.701 23.8311 102.331 23.2383V25.0167H98.5283V8.14471H102.331V14.0955ZM107.756 18.6327C107.756 17.6599 107.489 16.8999 106.955 16.3527C106.437 15.7903 105.792 15.5091 105.021 15.5091C104.265 15.5091 103.62 15.7903 103.087 16.3527C102.568 16.9151 102.308 17.6827 102.308 18.6555C102.308 19.6283 102.568 20.3959 103.087 20.9583C103.62 21.5207 104.265 21.8019 105.021 21.8019C105.777 21.8019 106.422 21.5207 106.955 20.9583C107.489 20.3807 107.756 19.6055 107.756 18.6327Z" fill="#B7AE9E"/>
<path d="M119.045 25.1991C117.83 25.1991 116.733 24.9331 115.754 24.4011C114.791 23.8691 114.027 23.1091 113.464 22.1211C112.916 21.1331 112.641 19.9779 112.641 18.6555C112.641 17.3483 112.923 16.2007 113.486 15.2127C114.05 14.2095 114.82 13.4419 115.799 12.9099C116.777 12.3779 117.874 12.1119 119.09 12.1119C120.305 12.1119 121.402 12.3779 122.38 12.9099C123.359 13.4419 124.13 14.2095 124.693 15.2127C125.256 16.2007 125.538 17.3483 125.538 18.6555C125.538 19.9627 125.249 21.1179 124.671 22.1211C124.107 23.1091 123.329 23.8691 122.336 24.4011C121.358 24.9331 120.261 25.1991 119.045 25.1991ZM119.045 21.8247C119.771 21.8247 120.387 21.5511 120.891 21.0039C121.409 20.4567 121.669 19.6739 121.669 18.6555C121.669 17.6371 121.417 16.8543 120.913 16.3071C120.424 15.7599 119.816 15.4863 119.09 15.4863C118.348 15.4863 117.733 15.7599 117.244 16.3071C116.755 16.8391 116.51 17.6219 116.51 18.6555C116.51 19.6739 116.747 20.4567 117.222 21.0039C117.711 21.5511 118.319 21.8247 119.045 21.8247Z" fill="#B7AE9E"/>
<path d="M134.67 25.0167L132.291 21.4827L130.29 25.0167H126.176L130.268 18.5187L126.065 12.2943H130.334L132.714 15.8055L134.715 12.2943H138.828L134.67 18.7011L138.939 25.0167H134.67Z" fill="#B7AE9E"/>
<path fill-rule="evenodd" clip-rule="evenodd" d="M17.9245 1.75524C17.5086 1.66752 17.0796 1.66752 16.6637 1.75524C16.1829 1.85663 15.7532 2.10343 15.4116 2.29963L15.3185 2.35297L3.74006 8.94878C3.70805 8.96701 3.67506 8.98564 3.64127 9.00473C3.27963 9.20898 2.82492 9.46579 2.47573 9.85434C2.17382 10.1903 1.94535 10.5884 1.80559 11.0222C1.64394 11.5239 1.64583 12.0562 1.64733 12.4795C1.64747 12.5191 1.64761 12.5577 1.64761 12.5952V25.6182C1.64761 25.6557 1.64747 25.6944 1.64733 25.7339C1.64583 26.1573 1.64394 26.6896 1.80559 27.1913C1.94535 27.625 2.17383 28.0232 2.47573 28.3591C2.82492 28.7476 3.27963 29.0044 3.64127 29.2087C3.67507 29.2278 3.70805 29.2464 3.74006 29.2646L15.3185 35.8604L15.4116 35.9138C15.7532 36.11 16.1829 36.3568 16.6637 36.4582C17.0796 36.5459 17.5086 36.5459 17.9245 36.4582C18.4053 36.3568 18.835 36.11 19.1766 35.9138L19.2697 35.8604L30.8481 29.2646C30.8623 29.2566 30.8766 29.2484 30.8911 29.2402C30.9095 29.2299 30.9281 29.2193 30.9469 29.2087C31.3086 29.0045 31.7633 28.7476 32.1125 28.3591C32.4144 28.0232 32.6428 27.625 32.7826 27.1913C32.9443 26.6896 32.9424 26.1573 32.9409 25.7339C32.9407 25.6943 32.9406 25.6557 32.9406 25.6182V12.5952C32.9406 12.5577 32.9407 12.5191 32.9409 12.4795C32.9424 12.0562 32.9443 11.5239 32.7826 11.0222C32.6428 10.5884 32.4144 10.1903 32.1125 9.85433C31.7633 9.46578 31.3086 9.20897 30.9469 9.00472L30.9456 9.004C30.9123 8.98516 30.8797 8.96678 30.8481 8.94877L19.2697 2.35297L19.1766 2.29963C18.835 2.10342 18.4053 1.85663 17.9245 1.75524ZM16.8382 5.15794C17.0753 5.02287 17.1963 4.95462 17.2866 4.90996L17.2941 4.90629L17.3016 4.90996C17.3919 4.95462 17.5129 5.02287 17.75 5.15794L28.1541 11.0848L17.294 17.2713L6.43408 11.0848L16.8382 5.15794ZM4.77691 13.8114L15.7294 20.0507L15.7294 32.4239L5.25978 26.4597C5.00951 26.3171 4.88173 26.2436 4.79209 26.185L4.78452 26.18L4.78395 26.1708C4.77756 26.062 4.77691 25.9118 4.77691 25.6182V13.8114Z" fill="#B7AE9E"/>
</svg>
